<svg xmlns="http://www.w3.org/2000/svg" viewBox="0 0 133.91 122.64" fill="none">
  <rect width="133.91" height="122.64" rx="24" fill="#D70000"/>
  <path d="M132.07,30.67c-1.84-7.9-5.5-15.32-11.17-21.12-25.65-26.27-60.08,6.57-68.61,38.85h0c-5.15,17.62-7.08,38.58,4.11,54.59-15.78-.09-37.51-3.93-43.7-20.4-4.14-17.3,16.12-29.21,30.77-32.61.6-2.33,1.29-4.73,2.11-7C-25.65,55.51-6.93,122.31,57.21,122.6c58.67,1.72,84.05-52.55,74.86-91.92ZM112.31,47.68c-1.41,13.28-11.89,47.54-33.33,51.77-2.59.51-5.27.41-7.78-.4-17.94-5.83-18.06-35.94-12.19-51.02,29.97-.12,40.99,16.13,40.99,16.13,1.35-3.59,2.44-7.34,3.24-11.18-16.52-12.08-41.66-11.28-41.66-11.28C76.94,7.26,117.59.11,112.31,47.68Z" fill="white"/>
</svg>
